<svg xmlns="http://www.w3.org/2000/svg" width="720" height="480" viewBox="0 0 720 480" role="img" aria-labelledby="title desc">
<title id="title">Mahjong picture tiles</title><desc id="desc">Layered ivory matching tiles decorated with hand-drawn leaves, suns, shells, flowers and birds.</desc>
<defs>
  <linearGradient id="bg" x1="0" y1="0" x2="1" y2="1"><stop stop-color="#bcc8a5"/><stop offset="1" stop-color="#6f977f"/></linearGradient>
  <radialGradient id="light" cx="28%" cy="10%" r="86%"><stop stop-color="#fff2cf" stop-opacity=".28"/><stop offset="1" stop-color="#fff2cf" stop-opacity="0"/></radialGradient>
  <linearGradient id="ivory" x1="0" y1="0" x2=".85" y2="1"><stop stop-color="#fffdf3"/><stop offset=".58" stop-color="#f7f0df"/><stop offset="1" stop-color="#e9dfc6"/></linearGradient>
  <linearGradient id="porcelain" x1="0" y1="0" x2=".9" y2="1"><stop stop-color="#fffef4"/><stop offset="1" stop-color="#eae4d2"/></linearGradient>
  <linearGradient id="sage" x1="0" y1="0" x2="1" y2="1"><stop stop-color="#92ad8b"/><stop offset="1" stop-color="#4b765e"/></linearGradient>
  <linearGradient id="honey" x1="0" y1="0" x2="1" y2="1"><stop stop-color="#e1b16b"/><stop offset="1" stop-color="#a56e39"/></linearGradient>
  <linearGradient id="wood" x1="0" y1="0" x2=".8" y2="1"><stop stop-color="#ddc399"/><stop offset=".45" stop-color="#c5a577"/><stop offset="1" stop-color="#a98458"/></linearGradient>
  <filter id="shadow" x="-45%" y="-45%" width="210%" height="230%"><feDropShadow dx="0" dy="18" stdDeviation="17" flood-color="#10291e" flood-opacity=".26"/></filter>
  <filter id="pieceShadow" x="-40%" y="-40%" width="190%" height="210%"><feDropShadow dx="1" dy="7" stdDeviation="5" flood-color="#14261d" flood-opacity=".24"/></filter>
  <filter id="softShadow" x="-50%" y="-70%" width="200%" height="250%"><feGaussianBlur stdDeviation="16"/></filter>
 </defs><rect width="720" height="480" fill="url(#bg)"/><rect width="720" height="480" fill="url(#light)"/>
 <path d="M-120 341C85 203 88 32 265-44" fill="none" stroke="#bcc8a5" stroke-opacity=".22" stroke-width="160"/>
 <path d="M557 530C516 326 775 344 777 80" fill="none" stroke="#6f977f" stroke-opacity=".16" stroke-width="118"/>
 <circle cx="682" cy="22" r="204" fill="none" stroke="#fff9dd" stroke-opacity=".06" stroke-width="1.5"/>
 <circle cx="682" cy="22" r="226" fill="none" stroke="#fff9dd" stroke-opacity=".05" stroke-width="1.5"/><ellipse cx="372" cy="412" rx="235" ry="26" fill="#344d3c" opacity=".22" filter="url(#softShadow)"/><g transform="translate(162 66) rotate(-7 208 184)"><g transform="translate(0 0) scale(1)" filter="url(#pieceShadow)"><rect x="0" y="8" width="92" height="116" rx="12" fill="#bcb699"/><rect x="0" y="4" width="92" height="116" rx="12" fill="#d7cdb2"/><rect width="92" height="112" rx="12" fill="url(#porcelain)" stroke="#fff8e4" stroke-width="1.4"/><rect x="7" y="7" width="78" height="97" rx="7" fill="none" stroke="#ded6bd" stroke-width=".8"/><g transform="translate(46 52) scale(0.84)"><circle r="18" fill="#d69e48"/><circle r="11" fill="none" stroke="#f6dc93" stroke-width="1.6"/><path d="M25.00 0.00L32.00 0.00" stroke="#c28a39" stroke-width="3" stroke-linecap="round"/><path d="M21.65 12.50L27.71 16.00" stroke="#c28a39" stroke-width="3" stroke-linecap="round"/><path d="M12.50 21.65L16.00 27.71" stroke="#c28a39" stroke-width="3" stroke-linecap="round"/><path d="M0.00 25.00L0.00 32.00" stroke="#c28a39" stroke-width="3" stroke-linecap="round"/><path d="M-12.50 21.65L-16.00 27.71" stroke="#c28a39" stroke-width="3" stroke-linecap="round"/><path d="M-21.65 12.50L-27.71 16.00" stroke="#c28a39" stroke-width="3" stroke-linecap="round"/><path d="M-25.00 0.00L-32.00 0.00" stroke="#c28a39" stroke-width="3" stroke-linecap="round"/><path d="M-21.65 -12.50L-27.71 -16.00" stroke="#c28a39" stroke-width="3" stroke-linecap="round"/><path d="M-12.50 -21.65L-16.00 -27.71" stroke="#c28a39" stroke-width="3" stroke-linecap="round"/><path d="M-0.00 -25.00L-0.00 -32.00" stroke="#c28a39" stroke-width="3" stroke-linecap="round"/><path d="M12.50 -21.65L16.00 -27.71" stroke="#c28a39" stroke-width="3" stroke-linecap="round"/><path d="M21.65 -12.50L27.71 -16.00" stroke="#c28a39" stroke-width="3" stroke-linecap="round"/></g><path d="M33 93H59" stroke="#9f987a" stroke-opacity=".55" stroke-linecap="round" stroke-width="2"/></g><g transform="translate(98 0) scale(1)" filter="url(#pieceShadow)"><rect x="0" y="8" width="92" height="116" rx="12" fill="#bcb699"/><rect x="0" y="4" width="92" height="116" rx="12" fill="#d7cdb2"/><rect width="92" height="112" rx="12" fill="url(#porcelain)" stroke="#fff8e4" stroke-width="1.4"/><rect x="7" y="7" width="78" height="97" rx="7" fill="none" stroke="#ded6bd" stroke-width=".8"/><g transform="translate(46 52) scale(0.84)"><path d="M-25 24C-40-5-9-30 29-31C34 4 18 30-10 29Z" fill="#678c64"/><path d="M-29 34L21-23M-15 18L-22-3M-4 7L-7-15M7-5L6-22M-3 7L17 10M-15 19L2 23" fill="none" stroke="#d7deb2" stroke-width="2.2" stroke-linecap="round"/></g><path d="M33 93H59" stroke="#9f987a" stroke-opacity=".55" stroke-linecap="round" stroke-width="2"/></g><g transform="translate(196 0) scale(1)" filter="url(#pieceShadow)"><rect x="0" y="8" width="92" height="116" rx="12" fill="#bcb699"/><rect x="0" y="4" width="92" height="116" rx="12" fill="#d7cdb2"/><rect width="92" height="112" rx="12" fill="url(#porcelain)" stroke="#fff8e4" stroke-width="1.4"/><rect x="7" y="7" width="78" height="97" rx="7" fill="none" stroke="#ded6bd" stroke-width=".8"/><g transform="translate(46 52) scale(0.84)"><path d="M-30 7C-9 13-11-21 10-21C20-21 25-14 25-8L35-3L24 2C18 31-14 26-30 7Z" fill="#608c90"/><path d="M-17 6Q-4-5 10 3Q3 20-17 6Z" fill="#b0c1ad"/><circle cx="17" cy="-12" r="2.1" fill="#254d47"/><path d="M-4 23L-6 32M4 23L6 32" stroke="#7e7753" stroke-width="2" stroke-linecap="round"/></g><path d="M33 93H59" stroke="#9f987a" stroke-opacity=".55" stroke-linecap="round" stroke-width="2"/></g><g transform="translate(294 0) scale(1)" filter="url(#pieceShadow)"><rect x="0" y="8" width="92" height="116" rx="12" fill="#bcb699"/><rect x="0" y="4" width="92" height="116" rx="12" fill="#d7cdb2"/><rect width="92" height="112" rx="12" fill="url(#porcelain)" stroke="#fff8e4" stroke-width="1.4"/><rect x="7" y="7" width="78" height="97" rx="7" fill="none" stroke="#ded6bd" stroke-width=".8"/><g transform="translate(46 52) scale(0.84)"><path d="M-11 27L-35-9C-40-22-25-31-16-25C-11-39 8-40 16-26C31-33 45-17 34-5L12 27Z" fill="#c8755e"/><path d="M0 23L-23-20M0 23L-11-27M0 23L1-29M0 23L13-23M0 23L26-15" stroke="#f3c8ab" stroke-width="2.5" fill="none"/><path d="M-12 26Q0 32 12 26L11 32Q0 36-11 32Z" fill="#af604c"/></g><path d="M33 93H59" stroke="#9f987a" stroke-opacity=".55" stroke-linecap="round" stroke-width="2"/></g><g transform="translate(0 118) scale(1)" filter="url(#pieceShadow)"><rect x="0" y="8" width="92" height="116" rx="12" fill="#bcb699"/><rect x="0" y="4" width="92" height="116" rx="12" fill="#d7cdb2"/><rect width="92" height="112" rx="12" fill="url(#porcelain)" stroke="#fff8e4" stroke-width="1.4"/><rect x="7" y="7" width="78" height="97" rx="7" fill="none" stroke="#ded6bd" stroke-width=".8"/><g transform="translate(46 52) scale(0.84)"><path d="M-9 32L-9-29M11 32L11-34" fill="none" stroke="#729366" stroke-width="8" stroke-linecap="round"/><path d="M-15 10H-3M-15-11H-3M5 18H17M5-5H17M5-25H17" stroke="#dfe7bd" stroke-width="2"/><path d="M-10-6Q-30-8-31-23Q-14-24-10-6M12 6Q33-1 34-17Q14-14 12 6M12-22Q24-39 34-36Q32-20 12-22" fill="#587c51"/></g><path d="M33 93H59" stroke="#9f987a" stroke-opacity=".55" stroke-linecap="round" stroke-width="2"/></g><g transform="translate(98 118) scale(1)" filter="url(#pieceShadow)"><rect x="0" y="8" width="92" height="116" rx="12" fill="#bcb699"/><rect x="0" y="4" width="92" height="116" rx="12" fill="#d7cdb2"/><rect width="92" height="112" rx="12" fill="url(#porcelain)" stroke="#fff8e4" stroke-width="1.4"/><rect x="7" y="7" width="78" height="97" rx="7" fill="none" stroke="#ded6bd" stroke-width=".8"/><g transform="translate(46 52) scale(0.84)"><ellipse cx="0" cy="-17" rx="11" ry="17" fill="#b3867e" transform="rotate(0)"/><ellipse cx="0" cy="-17" rx="11" ry="17" fill="#b3867e" transform="rotate(60)"/><ellipse cx="0" cy="-17" rx="11" ry="17" fill="#b3867e" transform="rotate(120)"/><ellipse cx="0" cy="-17" rx="11" ry="17" fill="#b3867e" transform="rotate(180)"/><ellipse cx="0" cy="-17" rx="11" ry="17" fill="#b3867e" transform="rotate(240)"/><ellipse cx="0" cy="-17" rx="11" ry="17" fill="#b3867e" transform="rotate(300)"/><circle r="10" fill="#dbb870"/><circle r="5" fill="#947848"/></g><path d="M33 93H59" stroke="#9f987a" stroke-opacity=".55" stroke-linecap="round" stroke-width="2"/></g><g transform="translate(196 118) scale(1)" filter="url(#pieceShadow)"><rect x="0" y="8" width="92" height="116" rx="12" fill="#bcb699"/><rect x="0" y="4" width="92" height="116" rx="12" fill="#d7cdb2"/><rect width="92" height="112" rx="12" fill="url(#porcelain)" stroke="#fff8e4" stroke-width="1.4"/><rect x="7" y="7" width="78" height="97" rx="7" fill="none" stroke="#ded6bd" stroke-width=".8"/><g transform="translate(46 52) scale(0.84)"><circle r="18" fill="#d69e48"/><circle r="11" fill="none" stroke="#f6dc93" stroke-width="1.6"/><path d="M25.00 0.00L32.00 0.00" stroke="#c28a39" stroke-width="3" stroke-linecap="round"/><path d="M21.65 12.50L27.71 16.00" stroke="#c28a39" stroke-width="3" stroke-linecap="round"/><path d="M12.50 21.65L16.00 27.71" stroke="#c28a39" stroke-width="3" stroke-linecap="round"/><path d="M0.00 25.00L0.00 32.00" stroke="#c28a39" stroke-width="3" stroke-linecap="round"/><path d="M-12.50 21.65L-16.00 27.71" stroke="#c28a39" stroke-width="3" stroke-linecap="round"/><path d="M-21.65 12.50L-27.71 16.00" stroke="#c28a39" stroke-width="3" stroke-linecap="round"/><path d="M-25.00 0.00L-32.00 0.00" stroke="#c28a39" stroke-width="3" stroke-linecap="round"/><path d="M-21.65 -12.50L-27.71 -16.00" stroke="#c28a39" stroke-width="3" stroke-linecap="round"/><path d="M-12.50 -21.65L-16.00 -27.71" stroke="#c28a39" stroke-width="3" stroke-linecap="round"/><path d="M-0.00 -25.00L-0.00 -32.00" stroke="#c28a39" stroke-width="3" stroke-linecap="round"/><path d="M12.50 -21.65L16.00 -27.71" stroke="#c28a39" stroke-width="3" stroke-linecap="round"/><path d="M21.65 -12.50L27.71 -16.00" stroke="#c28a39" stroke-width="3" stroke-linecap="round"/></g><path d="M33 93H59" stroke="#9f987a" stroke-opacity=".55" stroke-linecap="round" stroke-width="2"/></g><g transform="translate(294 118) scale(1)" filter="url(#pieceShadow)"><rect x="0" y="8" width="92" height="116" rx="12" fill="#bcb699"/><rect x="0" y="4" width="92" height="116" rx="12" fill="#d7cdb2"/><rect width="92" height="112" rx="12" fill="url(#porcelain)" stroke="#fff8e4" stroke-width="1.4"/><rect x="7" y="7" width="78" height="97" rx="7" fill="none" stroke="#ded6bd" stroke-width=".8"/><g transform="translate(46 52) scale(0.84)"><path d="M-30 7C-9 13-11-21 10-21C20-21 25-14 25-8L35-3L24 2C18 31-14 26-30 7Z" fill="#608c90"/><path d="M-17 6Q-4-5 10 3Q3 20-17 6Z" fill="#b0c1ad"/><circle cx="17" cy="-12" r="2.1" fill="#254d47"/><path d="M-4 23L-6 32M4 23L6 32" stroke="#7e7753" stroke-width="2" stroke-linecap="round"/></g><path d="M33 93H59" stroke="#9f987a" stroke-opacity=".55" stroke-linecap="round" stroke-width="2"/></g><g transform="translate(0 236) scale(1)" filter="url(#pieceShadow)"><rect x="0" y="8" width="92" height="116" rx="12" fill="#bcb699"/><rect x="0" y="4" width="92" height="116" rx="12" fill="#d7cdb2"/><rect width="92" height="112" rx="12" fill="url(#porcelain)" stroke="#fff8e4" stroke-width="1.4"/><rect x="7" y="7" width="78" height="97" rx="7" fill="none" stroke="#ded6bd" stroke-width=".8"/><g transform="translate(46 52) scale(0.84)"><path d="M-11 27L-35-9C-40-22-25-31-16-25C-11-39 8-40 16-26C31-33 45-17 34-5L12 27Z" fill="#c8755e"/><path d="M0 23L-23-20M0 23L-11-27M0 23L1-29M0 23L13-23M0 23L26-15" stroke="#f3c8ab" stroke-width="2.5" fill="none"/><path d="M-12 26Q0 32 12 26L11 32Q0 36-11 32Z" fill="#af604c"/></g><path d="M33 93H59" stroke="#9f987a" stroke-opacity=".55" stroke-linecap="round" stroke-width="2"/></g><g transform="translate(98 236) scale(1)" filter="url(#pieceShadow)"><rect x="0" y="8" width="92" height="116" rx="12" fill="#bcb699"/><rect x="0" y="4" width="92" height="116" rx="12" fill="#d7cdb2"/><rect width="92" height="112" rx="12" fill="url(#porcelain)" stroke="#fff8e4" stroke-width="1.4"/><rect x="7" y="7" width="78" height="97" rx="7" fill="none" stroke="#ded6bd" stroke-width=".8"/><g transform="translate(46 52) scale(0.84)"><path d="M-25 24C-40-5-9-30 29-31C34 4 18 30-10 29Z" fill="#678c64"/><path d="M-29 34L21-23M-15 18L-22-3M-4 7L-7-15M7-5L6-22M-3 7L17 10M-15 19L2 23" fill="none" stroke="#d7deb2" stroke-width="2.2" stroke-linecap="round"/></g><path d="M33 93H59" stroke="#9f987a" stroke-opacity=".55" stroke-linecap="round" stroke-width="2"/></g><g transform="translate(196 236) scale(1)" filter="url(#pieceShadow)"><rect x="0" y="8" width="92" height="116" rx="12" fill="#bcb699"/><rect x="0" y="4" width="92" height="116" rx="12" fill="#d7cdb2"/><rect width="92" height="112" rx="12" fill="url(#porcelain)" stroke="#fff8e4" stroke-width="1.4"/><rect x="7" y="7" width="78" height="97" rx="7" fill="none" stroke="#ded6bd" stroke-width=".8"/><g transform="translate(46 52) scale(0.84)"><ellipse cx="0" cy="-17" rx="11" ry="17" fill="#b3867e" transform="rotate(0)"/><ellipse cx="0" cy="-17" rx="11" ry="17" fill="#b3867e" transform="rotate(60)"/><ellipse cx="0" cy="-17" rx="11" ry="17" fill="#b3867e" transform="rotate(120)"/><ellipse cx="0" cy="-17" rx="11" ry="17" fill="#b3867e" transform="rotate(180)"/><ellipse cx="0" cy="-17" rx="11" ry="17" fill="#b3867e" transform="rotate(240)"/><ellipse cx="0" cy="-17" rx="11" ry="17" fill="#b3867e" transform="rotate(300)"/><circle r="10" fill="#dbb870"/><circle r="5" fill="#947848"/></g><path d="M33 93H59" stroke="#9f987a" stroke-opacity=".55" stroke-linecap="round" stroke-width="2"/></g><g transform="translate(294 236) scale(1)" filter="url(#pieceShadow)"><rect x="0" y="8" width="92" height="116" rx="12" fill="#bcb699"/><rect x="0" y="4" width="92" height="116" rx="12" fill="#d7cdb2"/><rect width="92" height="112" rx="12" fill="url(#porcelain)" stroke="#fff8e4" stroke-width="1.4"/><rect x="7" y="7" width="78" height="97" rx="7" fill="none" stroke="#ded6bd" stroke-width=".8"/><g transform="translate(46 52) scale(0.84)"><path d="M-9 32L-9-29M11 32L11-34" fill="none" stroke="#729366" stroke-width="8" stroke-linecap="round"/><path d="M-15 10H-3M-15-11H-3M5 18H17M5-5H17M5-25H17" stroke="#dfe7bd" stroke-width="2"/><path d="M-10-6Q-30-8-31-23Q-14-24-10-6M12 6Q33-1 34-17Q14-14 12 6M12-22Q24-39 34-36Q32-20 12-22" fill="#587c51"/></g><path d="M33 93H59" stroke="#9f987a" stroke-opacity=".55" stroke-linecap="round" stroke-width="2"/></g></g><g transform="translate(304 160) rotate(7 90 80)"><g transform="translate(0 0) scale(1.07)" filter="url(#pieceShadow)"><rect x="0" y="8" width="92" height="116" rx="12" fill="#bcb699"/><rect x="0" y="4" width="92" height="116" rx="12" fill="#d7cdb2"/><rect width="92" height="112" rx="12" fill="url(#porcelain)" stroke="#fff8e4" stroke-width="1.4"/><rect x="7" y="7" width="78" height="97" rx="7" fill="none" stroke="#ded6bd" stroke-width=".8"/><g transform="translate(46 52) scale(0.84)"><path d="M-25 24C-40-5-9-30 29-31C34 4 18 30-10 29Z" fill="#678c64"/><path d="M-29 34L21-23M-15 18L-22-3M-4 7L-7-15M7-5L6-22M-3 7L17 10M-15 19L2 23" fill="none" stroke="#d7deb2" stroke-width="2.2" stroke-linecap="round"/></g><path d="M33 93H59" stroke="#9f987a" stroke-opacity=".55" stroke-linecap="round" stroke-width="2"/></g><g transform="translate(101 2) scale(1.07)" filter="url(#pieceShadow)"><rect x="0" y="8" width="92" height="116" rx="12" fill="#bcb699"/><rect x="0" y="4" width="92" height="116" rx="12" fill="#d7cdb2"/><rect width="92" height="112" rx="12" fill="url(#porcelain)" stroke="#fff8e4" stroke-width="1.4"/><rect x="7" y="7" width="78" height="97" rx="7" fill="none" stroke="#ded6bd" stroke-width=".8"/><g transform="translate(46 52) scale(0.84)"><path d="M-25 24C-40-5-9-30 29-31C34 4 18 30-10 29Z" fill="#678c64"/><path d="M-29 34L21-23M-15 18L-22-3M-4 7L-7-15M7-5L6-22M-3 7L17 10M-15 19L2 23" fill="none" stroke="#d7deb2" stroke-width="2.2" stroke-linecap="round"/></g><path d="M33 93H59" stroke="#9f987a" stroke-opacity=".55" stroke-linecap="round" stroke-width="2"/></g></g><path d="M72 413Q92 310 39 247M74 365Q103 331 121 337Q118 367 74 365M65 316Q37 287 24 296Q32 320 65 316" fill="none" stroke="#697d5e" stroke-width="3" opacity=".23"/></svg>